HIERARCHY
ROOT Hips
{
	OFFSET 0.000000 0.000000 0.000000
	CHANNELS 6 Xposition Yposition Zposition Zrotation Yrotation Xrotation 
	JOINT LHipJoint
	{
		OFFSET 0.000000 0.000000 0.000000
		CHANNELS 3 Zrotation Yrotation Xrotation
		JOINT LeftUpLeg
		{
			OFFSET 1.363060 -1.794630 0.839290
			CHANNELS 3 Zrotation Yrotation Xrotation
			JOINT LeftLeg
			{
				OFFSET 2.448110 -6.726130 0.000000
				CHANNELS 3 Zrotation Yrotation Xrotation
				JOINT LeftFoot
				{
					OFFSET 2.562200 -7.039590 0.000000
					CHANNELS 3 Zrotation Yrotation Xrotation
					JOINT LeftToeBase
					{
						OFFSET 0.157640 -0.433110 2.322550
						CHANNELS 3 Zrotation Yrotation Xrotation
						End Site
						{
							OFFSET 0.000000 0.000000 0.000000
						}
					}
				}
			}
		}
	}
	JOINT RHipJoint
	{
		OFFSET 0.000000 0.000000 0.000000
		CHANNELS 3 Zrotation Yrotation Xrotation
		JOINT RightUpLeg
		{
			OFFSET -1.305520 -1.794630 0.839290
			CHANNELS 3 Zrotation Yrotation Xrotation
			JOINT RightLeg
			{
				OFFSET -2.542530 -6.985550 0.000000
				CHANNELS 3 Zrotation Yrotation Xrotation
				JOINT RightFoot
				{
					OFFSET -2.568260 -7.056230 0.000000
					CHANNELS 3 Zrotation Yrotation Xrotation
					JOINT RightToeBase
					{
						OFFSET -0.164730 -0.452590 2.363150
						CHANNELS 3 Zrotation Yrotation Xrotation
						End Site
						{
							OFFSET 0.000000 0.000000 0.000000
						}
					}
				}
			}
		}
	}
	JOINT LowerBack
	{
		OFFSET 0.000000 0.000000 0.000000
		CHANNELS 3 Zrotation Yrotation Xrotation
		JOINT Spine
		{
			OFFSET 0.028270 2.035590 -0.193380
			CHANNELS 3 Zrotation Yrotation Xrotation
			JOINT Spine1
			{
				OFFSET 0.056720 2.048850 -0.042750
				CHANNELS 3 Zrotation Yrotation Xrotation
				JOINT Neck
				{
					OFFSET 0.000000 0.000000 0.000000
					CHANNELS 3 Zrotation Yrotation Xrotation
					JOINT Neck1
					{
						OFFSET -0.054170 1.746240 0.172020
						CHANNELS 3 Zrotation Yrotation Xrotation
						JOINT Head
						{
							OFFSET 0.104070 1.761360 -0.123970
							CHANNELS 3 Zrotation Yrotation Xrotation
							End Site
							{
								OFFSET 0.000000 0.000000 0.000000
							}
						}
					}
				}
				JOINT LeftShoulder
				{
					OFFSET 0.000000 0.000000 0.000000
					CHANNELS 3 Zrotation Yrotation Xrotation
					JOINT LeftArm
					{
						OFFSET 3.362410 1.200890 -0.311210
						CHANNELS 3 Zrotation Yrotation Xrotation
						JOINT LeftForeArm
						{
							OFFSET 4.983000 -0.000000 -0.000000
							CHANNELS 3 Zrotation Yrotation Xrotation
							JOINT LeftHand
							{
								OFFSET 3.483560 -0.000000 -0.000000
								CHANNELS 3 Zrotation Yrotation Xrotation
								JOINT LeftFingerBase
								{
									OFFSET 0.000000 0.000000 0.000000
									CHANNELS 3 Zrotation Yrotation Xrotation
									JOINT LeftHandIndex1
									{
										OFFSET 0.715260 -0.000000 -0.000000
										CHANNELS 3 Zrotation Yrotation Xrotation
										End Site
										{
											OFFSET 0.000000 0.000000 0.000000
										}
									}
								}
								JOINT LThumb
								{
									OFFSET 0.000000 0.000000 0.000000
									CHANNELS 3 Zrotation Yrotation Xrotation
									End Site
									{
										OFFSET 0.000000 0.000000 0.000000
									}
								}
							}
						}
					}
				}
				JOINT RightShoulder
				{
					OFFSET 0.000000 0.000000 0.000000
					CHANNELS 3 Zrotation Yrotation Xrotation
					JOINT RightArm
					{
						OFFSET -3.136600 1.374050 -0.404650
						CHANNELS 3 Zrotation Yrotation Xrotation
						JOINT RightForeArm
						{
							OFFSET -5.241900 -0.000000 -0.000000
							CHANNELS 3 Zrotation Yrotation Xrotation
							JOINT RightHand
							{
								OFFSET -3.444170 -0.000000 -0.000000
								CHANNELS 3 Zrotation Yrotation Xrotation
								JOINT RightFingerBase
								{
									OFFSET 0.000000 0.000000 0.000000
									CHANNELS 3 Zrotation Yrotation Xrotation
									JOINT RightHandIndex1
									{
										OFFSET -0.622530 -0.000000 -0.000000
										CHANNELS 3 Zrotation Yrotation Xrotation
										End Site
										{
											OFFSET 0.000000 0.000000 0.000000
										}
									}
								}
								JOINT RThumb
								{
									OFFSET 0.000000 0.000000 0.000000
									CHANNELS 3 Zrotation Yrotation Xrotation
									End Site
									{
										OFFSET 0.000000 0.000000 0.000000
									}
								}
							}
						}
					}
				}
			}
		}
	}
}
MOTION
Frames: 11
Frame Time: 0.008333
2.259951 16.153138 1.111913 -49.262286 -77.762341 39.325651 -11.653686 -2.284725 -6.814663 -4.283964 0.704012 -2.810121 -0.223852 3.372062 46.615822 4.674067 25.371844 -25.465056 -7.848300 -0.000001 -20.889300 6.053879 6.657437 0.167706 18.920079 -18.107535 -97.855891 3.663207 0.918290 3.824187 0.186905 -9.671358 -8.088327 -3.837600 0.000000 -64.431801 2.775189 -4.583141 10.141915 0.050720 -4.459363 -0.481980 -5.136398 -4.258176 1.565976 5.388742 -16.663664 -4.321730 -1.311202 -0.133060 0.665957 0.000000 0.000000 0.000000 8.765352 12.682008 -1.508610 -57.645544 25.182478 14.110190 -0.963166 -73.054413 0.007630 -8.234136 0.018317 0.002495 0.084565 0.057322 0.000000 0.000000 0.000000 0.000000 0.000000 0.000000 0.000000 2.845878 -14.882820 -1.064563 78.111307 -8.243469 3.270957 3.068455 32.855093 0.018288 -0.849931 8.272586 -0.070261 0.124333 -0.059069 0.000000 0.000000 0.000000 0.000000 0.000000 0.000000 0.000000 
2.259461 16.154954 1.105131 -47.277103 -77.744312 37.295563 -11.643997 -2.265814 -6.814955 -4.604578 0.665532 -2.672125 -0.241752 3.356738 46.453248 4.652226 25.215952 -25.397494 -7.775200 -0.000000 -20.948700 6.101753 6.735622 0.188161 17.984037 -18.782562 -97.518913 3.472000 0.796184 4.872441 0.347368 -10.460123 -9.386824 -4.068600 -0.000000 -63.446600 2.573454 -4.640545 10.135173 0.024447 -4.507238 -0.483083 -5.107814 -4.302607 1.557378 5.345044 -16.785968 -4.348069 -1.291152 -0.131402 0.660634 0.000000 0.000000 0.000000 8.678259 12.638793 -1.506202 -57.258061 25.216219 14.669282 -0.968858 -72.994951 0.007327 -8.415591 -0.071238 0.009070 0.087904 0.055276 0.000000 0.000000 0.000000 0.000000 0.000000 0.000000 0.000000 2.776097 -15.021424 -1.051941 78.144000 -8.663215 3.398980 3.049443 33.089521 0.018085 -0.876167 8.204749 -0.071565 0.124071 -0.058109 0.000000 0.000000 0.000000 0.000000 0.000000 0.000000 0.000000 
2.256498 16.159154 1.100191 -45.194172 -77.764531 35.296860 -11.618281 -2.236191 -6.777370 -4.997094 0.645113 -2.730006 -0.259681 3.323499 46.311785 4.632012 25.072883 -25.337150 -7.713100 0.000000 -20.939600 6.218763 6.840067 0.302978 16.046750 -19.344280 -95.837059 3.086701 0.802403 4.809028 0.341805 -12.178160 -9.718440 -4.531300 -0.000000 -63.022701 2.348728 -4.672649 9.972106 -0.001344 -4.532550 -0.510680 -5.071413 -4.327588 1.557588 5.293615 -16.940781 -4.399265 -1.265845 -0.129279 0.652141 0.000000 0.000000 0.000000 8.573615 12.598444 -1.498827 -56.919630 25.207033 15.177587 -0.981249 -72.837794 0.006989 -8.578263 -0.141203 0.014355 0.090028 0.052920 0.000000 0.000000 0.000000 0.000000 0.000000 0.000000 0.000000 2.696242 -15.171702 -1.034023 78.130245 -9.122257 3.595291 3.032275 33.372978 0.017886 -0.870948 8.126090 -0.070467 0.123762 -0.057264 0.000000 0.000000 0.000000 0.000000 0.000000 0.000000 0.000000 
2.251493 16.165373 1.096918 -43.134836 -77.801896 33.412993 -11.584804 -2.197051 -6.703447 -5.404219 0.660684 -2.948008 -0.277682 3.275971 46.188333 4.608271 24.914604 -25.285912 -7.653700 0.000000 -20.894400 6.387851 6.951491 0.478847 13.281749 -19.723154 -92.856605 2.550616 0.917719 3.692248 0.099753 -14.618155 -9.008567 -5.170800 -0.000000 -63.073699 2.124882 -4.679501 9.689007 -0.023719 -4.535726 -0.557896 -5.029102 -4.333507 1.563988 5.242303 -17.120485 -4.471341 -1.235918 -0.126731 0.640921 0.000000 0.000000 0.000000 8.469562 12.554843 -1.487627 -56.652945 25.166708 15.608858 -0.999654 -72.586181 0.006644 -8.711839 -0.186535 0.017850 0.090851 0.050394 0.000000 0.000000 0.000000 0.000000 0.000000 0.000000 0.000000 2.611733 -15.326956 -1.010735 78.070662 -9.612858 3.858819 3.017654 33.693586 0.017691 -0.829760 8.040681 -0.066769 0.123321 -0.056465 0.000000 0.000000 0.000000 0.000000 0.000000 0.000000 0.000000 
2.244924 16.173669 1.095413 -41.391118 -77.833423 31.881247 -11.555567 -2.146289 -6.589903 -5.724410 0.748474 -3.281884 -0.295838 3.218963 46.077525 4.572130 24.696495 -25.242050 -7.581701 -0.000000 -20.881100 6.576478 7.037969 0.653434 10.164447 -19.843874 -88.795205 1.960899 1.112678 1.609116 -0.488680 -17.331393 -7.138270 -5.872600 -0.000000 -63.513100 1.955428 -4.658265 9.339440 -0.035304 -4.515301 -0.615519 -4.985137 -4.318853 1.572808 5.197326 -17.311233 -4.559758 -1.203306 -0.123881 0.627355 0.000000 0.000000 0.000000 8.374622 12.508242 -1.473040 -56.474563 25.104929 15.938336 -1.023229 -72.247098 0.006322 -8.807574 -0.203570 0.019254 0.090315 0.047860 0.000000 0.000000 0.000000 0.000000 0.000000 0.000000 0.000000 2.528670 -15.473770 -0.982176 77.968196 -10.122193 4.168474 3.007626 34.031508 0.017503 -0.745987 7.953170 -0.060070 0.122668 -0.055661 0.000000 0.000000 0.000000 0.000000 0.000000 0.000000 0.000000 
2.237860 16.184185 1.096175 -40.300584 -77.835804 30.960552 -11.543314 -2.080243 -6.432870 -5.852600 0.936531 -3.660974 -0.314278 3.158789 45.964089 4.515430 24.379673 -25.199491 -7.481900 0.000000 -20.959000 6.747401 7.069921 0.741409 7.370926 -19.718747 -84.030850 1.446144 1.349819 -1.301071 -1.477921 -19.673454 -4.017263 -6.476900 -0.000000 -64.296799 1.904498 -4.608478 8.995301 -0.026774 -4.472045 -0.671721 -4.943471 -4.283905 1.579112 5.161573 -17.501699 -4.660542 -1.170449 -0.120863 0.611379 0.000000 0.000000 0.000000 8.283814 12.463044 -1.455013 -56.395412 25.027110 16.142748 -1.050974 -71.831479 0.006054 -8.859237 -0.191219 0.018167 0.088453 0.045510 0.000000 0.000000 0.000000 0.000000 0.000000 0.000000 0.000000 2.451651 -15.602837 -0.948882 77.823106 -10.626582 4.507704 3.003811 34.357993 0.017326 -0.621963 7.868726 -0.050771 0.121766 -0.054785 0.000000 0.000000 0.000000 0.000000 0.000000 0.000000 0.000000 
2.231229 16.197396 1.100017 -40.006605 -77.784007 30.704008 -11.557988 -1.992595 -6.226913 -5.740178 1.212625 -3.971530 -0.332811 3.101650 45.812034 4.436631 23.959260 -25.144245 -7.345600 -0.000000 -21.151000 6.864962 7.030689 0.641511 5.661833 -19.542172 -79.013908 1.139253 1.595490 -4.908551 -2.767385 -20.842338 0.334048 -6.749300 -0.000000 -65.408800 2.009815 -4.539488 8.743679 0.007338 -4.414930 -0.712055 -4.905078 -4.236452 1.577466 5.132604 -17.676158 -4.768846 -1.139481 -0.117787 0.592927 0.000000 0.000000 0.000000 8.182013 12.425030 -1.431877 -56.418831 24.935144 16.204657 -1.081990 -71.353681 0.005864 -8.863916 -0.149989 0.014787 0.085377 0.043533 0.000000 0.000000 0.000000 0.000000 0.000000 0.000000 0.000000 2.379059 -15.705022 -0.912019 77.640787 -11.100905 4.840598 3.007487 34.635908 0.017166 -0.457671 7.795903 -0.038974 0.120536 -0.053781 0.000000 0.000000 0.000000 0.000000 0.000000 0.000000 0.000000 
2.225447 16.213400 1.106889 -40.311933 -77.662927 30.867016 -11.603834 -1.886891 -5.991138 -5.426956 1.521747 -4.089646 -0.352007 3.053316 45.570373 4.342647 23.468224 -25.058486 -7.173900 -0.000000 -21.456900 6.921661 6.924787 0.330963 5.218109 -19.557141 -74.427577 1.095738 1.745061 -8.152521 -3.909418 -20.404241 5.050528 -6.543599 -0.000000 -66.503900 2.247709 -4.466700 8.638877 0.061799 -4.357061 -0.729158 -4.868701 -4.188118 1.564081 5.111347 -17.824200 -4.879708 -1.111667 -0.114722 0.572029 0.000000 0.000000 0.000000 8.064488 12.397396 -1.402416 -56.534187 24.829569 16.128920 -1.115163 -70.829604 0.005763 -8.819806 -0.086728 0.009713 0.081289 0.042086 0.000000 0.000000 0.000000 0.000000 0.000000 0.000000 0.000000 2.314306 -15.779949 -0.873613 77.428152 -11.537758 5.141987 3.016480 34.852500 0.016983 -0.264140 7.726129 -0.025378 0.118942 -0.052526 0.000000 0.000000 0.000000 0.000000 0.000000 0.000000 0.000000 
2.219989 16.231985 1.115088 -40.732658 -77.490691 31.104930 -11.681181 -1.806289 -5.828091 -5.024203 1.786026 -3.995710 -0.377139 3.018110 45.203750 4.245389 22.946619 -24.935292 -6.975299 0.000000 -21.811500 6.930231 6.750065 0.083597 5.325292 -19.743209 -74.113678 1.415195 1.199426 -3.458119 -3.544689 -18.347322 5.279982 -5.883300 0.000000 -67.282000 2.532912 -4.404329 8.576649 0.117543 -4.312095 -0.760748 -4.832890 -4.152691 1.538905 5.099908 -17.941333 -4.989940 -1.085606 -0.111576 0.548948 0.000000 0.000000 0.000000 7.947806 12.384885 -1.365470 -56.716147 24.737564 15.932205 -1.149297 -70.279069 0.005749 -8.731073 -0.005758 0.003345 0.076426 0.041247 0.000000 0.000000 0.000000 0.000000 0.000000 0.000000 0.000000 2.254966 -15.841366 -0.835065 77.208816 -11.936323 5.381460 3.031802 34.969485 0.016815 -0.046123 7.671100 -0.010285 0.117141 -0.050923 0.000000 0.000000 0.000000 0.000000 0.000000 0.000000 0.000000 
2.214135 16.253096 1.122705 -41.132919 -77.251291 31.144103 -11.766929 -1.710983 -5.638747 -4.580162 2.005133 -3.650081 -0.399175 2.984941 44.707945 4.147063 22.422478 -24.760964 -6.756300 -0.000000 -22.196800 6.884000 6.562195 -0.344947 6.055254 -20.279309 -73.745841 1.792864 0.622971 1.085280 -3.031188 -15.677250 5.533589 -5.014400 0.000001 -67.507200 2.817712 -4.366322 8.659560 0.171230 -4.287967 -0.760863 -4.798086 -4.136152 1.506749 5.105952 -18.026392 -5.089801 -1.061375 -0.108555 0.526704 0.000000 0.000000 0.000000 7.850196 12.376185 -1.328490 -56.941304 24.664959 15.639754 -1.182555 -69.725740 0.005790 -8.603002 0.084537 -0.003521 0.071202 0.040933 0.000000 0.000000 0.000000 0.000000 0.000000 0.000000 0.000000 2.212085 -15.882090 -0.799080 77.005377 -12.294979 5.534578 3.051475 34.974737 0.016638 0.183516 7.625685 0.005305 0.115160 -0.049107 0.000000 0.000000 0.000000 0.000000 0.000000 0.000000 0.000000 
2.207354 16.277001 1.128396 -41.451330 -76.989492 31.014653 -11.849756 -1.605948 -5.434521 -4.137211 2.191432 -3.155187 -0.418348 2.949524 44.102741 4.050279 21.909250 -24.534671 -6.522301 0.000000 -22.601201 6.826856 6.370853 -0.854743 6.915331 -21.001052 -73.043665 2.122299 0.080658 5.103779 -2.521467 -13.088031 5.775761 -4.170700 -0.000000 -67.301600 3.063373 -4.344462 8.806474 0.216478 -4.276925 -0.743459 -4.767728 -4.131227 1.473953 5.133880 -18.080968 -5.178804 -1.039162 -0.105763 0.506349 0.000000 0.000000 0.000000 7.776267 12.382582 -1.294133 -57.179767 24.620860 15.276959 -1.214109 -69.189036 0.005860 -8.444542 0.175848 -0.010186 0.065766 0.041036 0.000000 0.000000 0.000000 0.000000 0.000000 0.000000 0.000000 2.194082 -15.900642 -0.766424 76.830973 -12.608905 5.577109 3.077256 34.853458 0.016485 0.411994 7.589925 0.020595 0.113322 -0.047237 0.000000 0.000000 0.000000 0.000000 0.000000 0.000000 0.000000 
